<?xml version="1.0" standalone="no"?>
<!DOCTYPE svg PUBLIC "-//W3C//DTD SVG 20010904//EN"
 "http://www.w3.org/TR/2001/REC-SVG-20010904/DTD/svg10.dtd">
<svg version="1.0" xmlns="http://www.w3.org/2000/svg"
 width="256.000000pt" height="256.000000pt" viewBox="0 0 256.000000 256.000000"
 preserveAspectRatio="xMidYMid meet">

<g transform="translate(0.000000,256.000000) scale(0.100000,-0.100000)"
fill="#000000" stroke="none">
<path d="M0 1280 l0 -1280 1280 0 1280 0 0 1280 0 1280 -1280 0 -1280 0 0
-1280z m1396 584 c59 -9 137 -50 192 -99 237 -213 189 -599 -90 -741 -50 -26
-158 -57 -166 -49 -3 3 0 5 6 5 7 0 12 13 12 29 0 28 -1 28 -62 30 -108 3
-187 33 -258 97 -159 144 -172 394 -29 549 76 82 166 123 280 126 l71 2 -4 33
c-2 18 -1 31 3 28 4 -2 24 -6 45 -10z m-516 -990 c0 -11 -6 -14 -20 -9 -11 4
-20 2 -20 -4 0 -6 9 -11 20 -11 26 0 36 -25 19 -46 -14 -17 -60 -15 -67 4 -2
7 7 13 25 13 24 2 25 2 5 6 -26 5 -37 25 -28 48 8 21 66 20 66 -1z m93 -11
c26 -51 30 -73 13 -73 -9 0 -16 5 -16 10 0 14 -33 13 -47 -1 -25 -25 -31 -2
-11 44 23 53 41 59 61 20z m117 12 c0 -8 -7 -15 -15 -15 -10 0 -15 -11 -15
-35 0 -24 -5 -35 -15 -35 -10 0 -15 11 -15 35 0 24 -5 35 -15 35 -8 0 -15 7
-15 15 0 11 12 15 45 15 33 0 45 -4 45 -15z m92 -2 c22 -20 23 -41 1 -65 -20
-22 -42 -23 -71 -2 -26 18 -28 41 -5 66 20 22 51 23 75 1z m98 1 c0 -11 -6
-14 -20 -9 -11 4 -20 2 -20 -4 0 -6 9 -11 20 -11 26 0 36 -25 19 -46 -14 -17
-60 -15 -67 4 -2 7 7 13 25 13 24 2 25 2 5 6 -26 5 -37 25 -28 48 8 21 66 20
66 -1z m50 -4 c0 -12 7 -20 16 -20 9 0 18 9 21 20 3 11 12 20 19 20 10 0 14
-14 14 -50 0 -38 -4 -50 -15 -50 -8 0 -15 9 -15 20 0 13 -7 20 -20 20 -13 0
-20 -7 -20 -20 0 -11 -7 -20 -15 -20 -11 0 -15 12 -15 50 0 38 4 50 15 50 8 0
15 -9 15 -20z m110 -30 c0 -38 -4 -50 -15 -50 -11 0 -15 12 -15 50 0 38 4 50
15 50 11 0 15 -12 15 -50z m108 -3 c3 -42 1 -47 -17 -47 -18 0 -21 6 -21 51 0
43 3 50 18 47 13 -2 18 -15 20 -51z m61 27 l21 -27 0 27 c0 16 5 26 15 26 11
0 15 -12 15 -50 0 -58 -16 -66 -49 -24 l-21 27 0 -27 c0 -16 -5 -26 -15 -26
-11 0 -15 12 -15 50 0 58 16 66 49 24z m93 -6 c4 -46 28 -49 28 -4 0 29 4 36
20 36 25 0 28 -45 4 -78 -31 -44 -84 -17 -84 44 0 45 27 47 32 2z m-202 -28
c0 -5 -9 -10 -20 -10 -11 0 -20 5 -20 10 0 6 9 10 20 10 11 0 20 -4 20 -10z
m-260 -84 c0 -2 -11 -6 -25 -8 -13 -3 -22 -1 -19 3 5 9 44 13 44 5z m133 -3
c-7 -2 -19 -2 -25 0 -7 3 -2 5 12 5 14 0 19 -2 13 -5z m88 -20 c13 -16 12 -17
-3 -4 -17 13 -22 21 -14 21 2 0 10 -8 17 -17z m-144 -35 c-3 -7 -5 -2 -5 12 0
14 2 19 5 13 2 -7 2 -19 0 -25z m90 0 c-3 -7 -5 -2 -5 12 0 14 2 19 5 13 2 -7
2 -19 0 -25z m-313 -28 c-6 -5 -24 21 -24 34 0 6 6 1 14 -10 8 -10 12 -21 10
-24z m151 0 c-3 -5 -16 -10 -28 -9 -20 1 -20 2 3 9 14 4 26 8 28 9 2 1 0 -3
-3 -9z m128 -7 c-7 -2 -19 -2 -25 0 -7 3 -2 5 12 5 14 0 19 -2 13 -5z"/>
<path d="M1222 1688 c-7 -7 -12 -24 -12 -39 0 -22 -6 -30 -35 -39 -39 -13 -85
-62 -85 -91 0 -18 8 -19 120 -19 l120 0 0 55 c0 54 -1 56 -30 62 -24 4 -30 11
-30 32 0 25 -15 51 -30 51 -3 0 -11 -5 -18 -12z"/>
<path d="M1332 1645 c0 -16 2 -22 5 -12 2 9 2 23 0 30 -3 6 -5 -1 -5 -18z"/>
<path d="M1094 1453 c15 -63 91 -99 191 -91 l40 3 3 58 3 57 -122 0 -121 0 6
-27z"/>
<path d="M1155 1332 c-38 -24 -52 -40 -60 -75 l-7 -27 60 0 61 0 3 -31 c4 -38
33 -62 48 -39 5 8 10 27 10 43 0 23 4 27 29 27 29 0 29 1 33 60 l3 60 -75 0
c-55 0 -83 -5 -105 -18z"/>
<path d="M1332 1195 c0 -16 2 -22 5 -12 2 9 2 23 0 30 -3 6 -5 -1 -5 -18z"/>
<path d="M940 840 c0 -5 5 -10 11 -10 5 0 7 5 4 10 -3 6 -8 10 -11 10 -2 0 -4
-4 -4 -10z"/>
<path d="M1131 856 c-14 -17 -7 -36 14 -36 22 0 29 20 13 36 -13 13 -16 13
-27 0z"/>
</g>
</svg>
